<svg width="48" height="48" xmlns="http://www.w3.org/2000/svg"><g fill="none" fill-rule="evenodd"><path fill="none" d="M0 0h48v48H0z"/><path d="M33.51 25.818C35.675 27.962 37 30.838 37 34c0 5.87-4.158 6.245-10.097 6.254h-.58c-.586-.001-1.188-.004-1.803-.004h-.299c-.497 0-.989.003-1.475.004h-.58C16.01 40.247 11 39.89 11 34c0-1.192.188-2.344.539-3.43 3.602.02 8.12-.553 12.913-1.748 3.243-.809 6.241-1.81 8.823-2.902ZM24 22c2.932 0 5.637.896 7.812 2.408-4.22 2.106-10.67 3.46-19.351 4.062C14.626 24.626 18.98 22 24 22Z" fill="#FFF"/><g transform="translate(2.143 9.34)"><ellipse stroke="#FFF" stroke-width="2" transform="rotate(-14 20.857 10.66)" cx="20.857" cy="10.66" rx="20" ry="6"/><circle fill="#FFF" cx="36.857" cy="9.66" r="3"/><circle fill="#FFF" cx="7.357" cy="9.16" r="2.5"/></g><circle fill="#FFF" cx="24" cy="13" r="7"/></g></svg>