<svg width="48" height="48" xmlns="http://www.w3.org/2000/svg"><g fill="#FFF" fill-rule="evenodd"><path fill="none" d="M0 0h48v48H0z"/><path d="M33.5 23.783c5.273 0 9.547 3.734 9.547 8.34 0 4.04-2.995 4.335-7.29 4.346h-.786l-.54-.001H33.34l-.538.001h-.794c-.21 0-.416-.001-.621-.003.4-.745.614-1.706.614-2.948 0-3.26-1.622-6.175-4.17-8.104 1.585-1.026 3.546-1.631 5.67-1.631Z"/><path d="M17.52 41.25C24.7 41.25 30 41.627 30 35s-5.82-12-13-12S4 28.373 4 35s6.34 6.25 13.52 6.25Z"/><circle cx="31.438" cy="17.481" r="5.168"/><circle cx="17" cy="15" r="7"/></g></svg>