<svg width="48" height="48" xmlns="http://www.w3.org/2000/svg"><g fill="none" fill-rule="evenodd"><path fill="none" d="M0 0h48v48H0z"/><path d="M19 23c1.535 0 3.009.246 4.376.697l-.001 10.54c0 .503.229.979.619 1.285l5.734 4.509c-1.74 1.069-4.377 1.21-7.54 1.222h-1.16c-.492-.001-.995-.003-1.508-.003-.598 0-1.19.003-1.774.004h-.868C10.854 41.233 6 40.798 6 35c0-6.627 5.82-12 13-12Z" fill="#FFF"/><circle fill="#FFF" cx="19" cy="15" r="7"/><path d="m40.28 21.046-6.539-1.027a1.528 1.528 0 0 0-.482 0l-6.539 1.027a1.612 1.612 0 0 0-1.345 1.604v10.587c0 .503.229.979.619 1.285l6.538 5.142a1.56 1.56 0 0 0 1.936 0l6.538-5.142c.39-.306.619-.782.619-1.285V22.65c0-.801-.571-1.48-1.345-1.604Z" fill="#FFF" fill-rule="nonzero"/><path d="m38.714 28.57-4.134 3.696c-.661.591-1.73.597-2.4.018l-.02-.018-4.133-3.695c.89-.797 2.335-.797 3.226 0l2.117 1.892 2.118-1.892c.89-.797 2.335-.797 3.226 0Z" fill="#000"/></g></svg>